<mxfile host="app.diagrams.net" modified="2024-04-10T14:51:05.386Z" agent="Mozilla/5.0 (Macintosh; Intel Mac OS X 10_15_7) AppleWebKit/605.1.15 (KHTML, like Gecko) Version/17.4.1 Safari/605.1.15" etag="HQQTfywtaRfeOvdMSGcE" version="24.2.3" type="github">
  <diagram name="Page-1" id="edf60f1a-56cd-e834-aa8a-f176f3a09ee4">
    <mxGraphModel dx="1154" dy="1455" grid="1" gridSize="10" guides="1" tooltips="1" connect="1" arrows="1" fold="1" page="1" pageScale="1" pageWidth="1100" pageHeight="850" background="none" math="0" shadow="0">
      <root>
        <mxCell id="0" />
        <mxCell id="1" parent="0" />
        <mxCell id="h9_nZe1dcZp-BVQekUmI-1" value="Images" style="rounded=0;whiteSpace=wrap;html=1;" vertex="1" parent="1">
          <mxGeometry x="190" y="740" width="120" height="60" as="geometry" />
        </mxCell>
        <mxCell id="h9_nZe1dcZp-BVQekUmI-12" style="edgeStyle=none;curved=1;rounded=0;orthogonalLoop=1;jettySize=auto;html=1;entryX=0.5;entryY=1;entryDx=0;entryDy=0;fontSize=12;startSize=8;endSize=8;" edge="1" parent="1" source="h9_nZe1dcZp-BVQekUmI-2" target="h9_nZe1dcZp-BVQekUmI-27">
          <mxGeometry relative="1" as="geometry">
            <mxPoint x="519.9999999999998" y="690" as="targetPoint" />
          </mxGeometry>
        </mxCell>
        <mxCell id="h9_nZe1dcZp-BVQekUmI-32" style="edgeStyle=none;curved=1;rounded=0;orthogonalLoop=1;jettySize=auto;html=1;entryX=0.5;entryY=1;entryDx=0;entryDy=0;fontSize=12;startSize=8;endSize=8;exitX=0.5;exitY=0;exitDx=0;exitDy=0;" edge="1" parent="1" source="h9_nZe1dcZp-BVQekUmI-2" target="h9_nZe1dcZp-BVQekUmI-31">
          <mxGeometry relative="1" as="geometry">
            <Array as="points">
              <mxPoint x="640" y="760" />
            </Array>
          </mxGeometry>
        </mxCell>
        <mxCell id="h9_nZe1dcZp-BVQekUmI-2" value="Commands" style="rounded=0;whiteSpace=wrap;html=1;" vertex="1" parent="1">
          <mxGeometry x="460" y="740" width="120" height="60" as="geometry" />
        </mxCell>
        <mxCell id="h9_nZe1dcZp-BVQekUmI-9" value="" style="edgeStyle=none;curved=1;rounded=0;orthogonalLoop=1;jettySize=auto;html=1;fontSize=12;startSize=8;endSize=8;" edge="1" parent="1" source="h9_nZe1dcZp-BVQekUmI-5" target="h9_nZe1dcZp-BVQekUmI-8">
          <mxGeometry relative="1" as="geometry" />
        </mxCell>
        <mxCell id="h9_nZe1dcZp-BVQekUmI-5" value="CNN" style="whiteSpace=wrap;html=1;aspect=fixed;" vertex="1" parent="1">
          <mxGeometry x="210" y="610" width="80" height="80" as="geometry" />
        </mxCell>
        <mxCell id="h9_nZe1dcZp-BVQekUmI-7" style="edgeStyle=none;curved=1;rounded=0;orthogonalLoop=1;jettySize=auto;html=1;entryX=0.484;entryY=1.063;entryDx=0;entryDy=0;entryPerimeter=0;fontSize=12;startSize=8;endSize=8;" edge="1" parent="1" source="h9_nZe1dcZp-BVQekUmI-1" target="h9_nZe1dcZp-BVQekUmI-5">
          <mxGeometry relative="1" as="geometry" />
        </mxCell>
        <mxCell id="h9_nZe1dcZp-BVQekUmI-8" value="Flatten" style="whiteSpace=wrap;html=1;" vertex="1" parent="1">
          <mxGeometry x="190" y="540" width="120" height="40" as="geometry" />
        </mxCell>
        <mxCell id="h9_nZe1dcZp-BVQekUmI-19" style="edgeStyle=none;curved=1;rounded=0;orthogonalLoop=1;jettySize=auto;html=1;entryX=0.5;entryY=1;entryDx=0;entryDy=0;fontSize=12;startSize=8;endSize=8;" edge="1" parent="1" source="h9_nZe1dcZp-BVQekUmI-15" target="h9_nZe1dcZp-BVQekUmI-20">
          <mxGeometry relative="1" as="geometry">
            <mxPoint x="389.9999999999998" y="390" as="targetPoint" />
          </mxGeometry>
        </mxCell>
        <mxCell id="h9_nZe1dcZp-BVQekUmI-15" value="" style="shape=orEllipse;perimeter=ellipsePerimeter;whiteSpace=wrap;html=1;backgroundOutline=1;" vertex="1" parent="1">
          <mxGeometry x="350" y="430" width="80" height="80" as="geometry" />
        </mxCell>
        <mxCell id="h9_nZe1dcZp-BVQekUmI-16" style="edgeStyle=none;curved=1;rounded=0;orthogonalLoop=1;jettySize=auto;html=1;entryX=-0.059;entryY=0.494;entryDx=0;entryDy=0;entryPerimeter=0;fontSize=12;startSize=8;endSize=8;" edge="1" parent="1" source="h9_nZe1dcZp-BVQekUmI-8" target="h9_nZe1dcZp-BVQekUmI-15">
          <mxGeometry relative="1" as="geometry">
            <Array as="points">
              <mxPoint x="260" y="480" />
            </Array>
          </mxGeometry>
        </mxCell>
        <mxCell id="h9_nZe1dcZp-BVQekUmI-17" style="edgeStyle=none;curved=1;rounded=0;orthogonalLoop=1;jettySize=auto;html=1;entryX=1.062;entryY=0.511;entryDx=0;entryDy=0;entryPerimeter=0;fontSize=12;startSize=8;endSize=8;" edge="1" parent="1" target="h9_nZe1dcZp-BVQekUmI-15">
          <mxGeometry relative="1" as="geometry">
            <mxPoint x="519.9999999999998" y="610" as="sourcePoint" />
            <Array as="points">
              <mxPoint x="520" y="530" />
              <mxPoint x="500" y="470" />
            </Array>
          </mxGeometry>
        </mxCell>
        <mxCell id="h9_nZe1dcZp-BVQekUmI-24" style="edgeStyle=none;curved=1;rounded=0;orthogonalLoop=1;jettySize=auto;html=1;entryX=0.5;entryY=1;entryDx=0;entryDy=0;fontSize=12;startSize=8;endSize=8;" edge="1" parent="1" source="h9_nZe1dcZp-BVQekUmI-20" target="h9_nZe1dcZp-BVQekUmI-23">
          <mxGeometry relative="1" as="geometry" />
        </mxCell>
        <mxCell id="h9_nZe1dcZp-BVQekUmI-20" value="Positional Encoding" style="whiteSpace=wrap;html=1;" vertex="1" parent="1">
          <mxGeometry x="330" y="340" width="120" height="40" as="geometry" />
        </mxCell>
        <mxCell id="h9_nZe1dcZp-BVQekUmI-26" style="edgeStyle=none;curved=1;rounded=0;orthogonalLoop=1;jettySize=auto;html=1;entryX=0.5;entryY=1;entryDx=0;entryDy=0;fontSize=12;startSize=8;endSize=8;" edge="1" parent="1" source="h9_nZe1dcZp-BVQekUmI-23" target="h9_nZe1dcZp-BVQekUmI-25">
          <mxGeometry relative="1" as="geometry" />
        </mxCell>
        <mxCell id="h9_nZe1dcZp-BVQekUmI-23" value="Transformer Layers" style="whiteSpace=wrap;html=1;aspect=fixed;" vertex="1" parent="1">
          <mxGeometry x="340" y="190" width="100" height="100" as="geometry" />
        </mxCell>
        <mxCell id="h9_nZe1dcZp-BVQekUmI-30" style="edgeStyle=none;curved=1;rounded=0;orthogonalLoop=1;jettySize=auto;html=1;entryX=0.5;entryY=1;entryDx=0;entryDy=0;fontSize=12;startSize=8;endSize=8;" edge="1" parent="1" source="h9_nZe1dcZp-BVQekUmI-25" target="h9_nZe1dcZp-BVQekUmI-29">
          <mxGeometry relative="1" as="geometry" />
        </mxCell>
        <mxCell id="h9_nZe1dcZp-BVQekUmI-25" value="Attention Pooling" style="whiteSpace=wrap;html=1;" vertex="1" parent="1">
          <mxGeometry x="330" y="120" width="120" height="40" as="geometry" />
        </mxCell>
        <mxCell id="h9_nZe1dcZp-BVQekUmI-27" value="Projection&lt;div&gt;&amp;nbsp;Layer&lt;/div&gt;" style="shape=trapezoid;perimeter=trapezoidPerimeter;whiteSpace=wrap;html=1;fixedSize=1;" vertex="1" parent="1">
          <mxGeometry x="460" y="615" width="120" height="75" as="geometry" />
        </mxCell>
        <mxCell id="h9_nZe1dcZp-BVQekUmI-44" style="edgeStyle=none;curved=1;rounded=0;orthogonalLoop=1;jettySize=auto;html=1;entryX=0.5;entryY=1;entryDx=0;entryDy=0;fontSize=12;startSize=8;endSize=8;" edge="1" parent="1" source="h9_nZe1dcZp-BVQekUmI-29" target="h9_nZe1dcZp-BVQekUmI-40">
          <mxGeometry relative="1" as="geometry" />
        </mxCell>
        <mxCell id="h9_nZe1dcZp-BVQekUmI-29" value="Leaky ReLU" style="rounded=1;whiteSpace=wrap;html=1;" vertex="1" parent="1">
          <mxGeometry x="345" y="50" width="90" height="40" as="geometry" />
        </mxCell>
        <mxCell id="h9_nZe1dcZp-BVQekUmI-35" style="edgeStyle=none;curved=1;rounded=0;orthogonalLoop=1;jettySize=auto;html=1;entryX=0.5;entryY=1;entryDx=0;entryDy=0;fontSize=12;startSize=8;endSize=8;" edge="1" parent="1" source="h9_nZe1dcZp-BVQekUmI-31" target="h9_nZe1dcZp-BVQekUmI-34">
          <mxGeometry relative="1" as="geometry" />
        </mxCell>
        <mxCell id="h9_nZe1dcZp-BVQekUmI-31" value="LSTM" style="whiteSpace=wrap;html=1;aspect=fixed;" vertex="1" parent="1">
          <mxGeometry x="580" y="190" width="100" height="100" as="geometry" />
        </mxCell>
        <mxCell id="h9_nZe1dcZp-BVQekUmI-37" style="edgeStyle=none;curved=1;rounded=0;orthogonalLoop=1;jettySize=auto;html=1;entryX=0.5;entryY=1;entryDx=0;entryDy=0;fontSize=12;startSize=8;endSize=8;" edge="1" parent="1" source="h9_nZe1dcZp-BVQekUmI-34" target="h9_nZe1dcZp-BVQekUmI-36">
          <mxGeometry relative="1" as="geometry" />
        </mxCell>
        <mxCell id="h9_nZe1dcZp-BVQekUmI-34" value="Projection&lt;div&gt;&amp;nbsp;Layer&lt;/div&gt;" style="shape=trapezoid;perimeter=trapezoidPerimeter;whiteSpace=wrap;html=1;fixedSize=1;" vertex="1" parent="1">
          <mxGeometry x="570" y="85" width="120" height="75" as="geometry" />
        </mxCell>
        <mxCell id="h9_nZe1dcZp-BVQekUmI-45" style="edgeStyle=none;curved=1;rounded=0;orthogonalLoop=1;jettySize=auto;html=1;entryX=0.5;entryY=1;entryDx=0;entryDy=0;fontSize=12;startSize=8;endSize=8;" edge="1" parent="1" source="h9_nZe1dcZp-BVQekUmI-36" target="h9_nZe1dcZp-BVQekUmI-41">
          <mxGeometry relative="1" as="geometry" />
        </mxCell>
        <mxCell id="h9_nZe1dcZp-BVQekUmI-36" value="Leaky ReLU" style="rounded=1;whiteSpace=wrap;html=1;" vertex="1" parent="1">
          <mxGeometry x="585" y="20" width="90" height="40" as="geometry" />
        </mxCell>
        <mxCell id="h9_nZe1dcZp-BVQekUmI-43" style="edgeStyle=none;curved=1;rounded=0;orthogonalLoop=1;jettySize=auto;html=1;entryX=0;entryY=0.5;entryDx=0;entryDy=0;fontSize=12;startSize=8;endSize=8;" edge="1" parent="1" source="h9_nZe1dcZp-BVQekUmI-38" target="h9_nZe1dcZp-BVQekUmI-40">
          <mxGeometry relative="1" as="geometry" />
        </mxCell>
        <mxCell id="h9_nZe1dcZp-BVQekUmI-38" value="Transformer Weights" style="whiteSpace=wrap;html=1;" vertex="1" parent="1">
          <mxGeometry x="170" y="-80" width="120" height="40" as="geometry" />
        </mxCell>
        <mxCell id="h9_nZe1dcZp-BVQekUmI-42" style="edgeStyle=none;curved=1;rounded=0;orthogonalLoop=1;jettySize=auto;html=1;entryX=1;entryY=0.5;entryDx=0;entryDy=0;fontSize=12;startSize=8;endSize=8;" edge="1" parent="1" source="h9_nZe1dcZp-BVQekUmI-39" target="h9_nZe1dcZp-BVQekUmI-41">
          <mxGeometry relative="1" as="geometry" />
        </mxCell>
        <mxCell id="h9_nZe1dcZp-BVQekUmI-39" value="LSTM Weights" style="whiteSpace=wrap;html=1;" vertex="1" parent="1">
          <mxGeometry x="750" y="-80" width="120" height="40" as="geometry" />
        </mxCell>
        <mxCell id="h9_nZe1dcZp-BVQekUmI-47" style="edgeStyle=none;curved=1;rounded=0;orthogonalLoop=1;jettySize=auto;html=1;fontSize=12;startSize=8;endSize=8;exitX=0.663;exitY=0.009;exitDx=0;exitDy=0;exitPerimeter=0;" edge="1" parent="1" source="h9_nZe1dcZp-BVQekUmI-40" target="h9_nZe1dcZp-BVQekUmI-46">
          <mxGeometry relative="1" as="geometry" />
        </mxCell>
        <mxCell id="h9_nZe1dcZp-BVQekUmI-40" value="" style="shape=sumEllipse;perimeter=ellipsePerimeter;whiteSpace=wrap;html=1;backgroundOutline=1;" vertex="1" parent="1">
          <mxGeometry x="360" y="-90" width="60" height="60" as="geometry" />
        </mxCell>
        <mxCell id="h9_nZe1dcZp-BVQekUmI-48" style="edgeStyle=none;curved=1;rounded=0;orthogonalLoop=1;jettySize=auto;html=1;fontSize=12;startSize=8;endSize=8;exitX=0.333;exitY=0;exitDx=0;exitDy=0;exitPerimeter=0;" edge="1" parent="1" source="h9_nZe1dcZp-BVQekUmI-41" target="h9_nZe1dcZp-BVQekUmI-46">
          <mxGeometry relative="1" as="geometry" />
        </mxCell>
        <mxCell id="h9_nZe1dcZp-BVQekUmI-41" value="" style="shape=sumEllipse;perimeter=ellipsePerimeter;whiteSpace=wrap;html=1;backgroundOutline=1;" vertex="1" parent="1">
          <mxGeometry x="600" y="-90" width="60" height="60" as="geometry" />
        </mxCell>
        <mxCell id="h9_nZe1dcZp-BVQekUmI-50" style="edgeStyle=none;curved=1;rounded=0;orthogonalLoop=1;jettySize=auto;html=1;entryX=0.5;entryY=1;entryDx=0;entryDy=0;fontSize=12;startSize=8;endSize=8;" edge="1" parent="1" source="h9_nZe1dcZp-BVQekUmI-46" target="h9_nZe1dcZp-BVQekUmI-49">
          <mxGeometry relative="1" as="geometry" />
        </mxCell>
        <mxCell id="h9_nZe1dcZp-BVQekUmI-46" value="" style="shape=orEllipse;perimeter=ellipsePerimeter;whiteSpace=wrap;html=1;backgroundOutline=1;" vertex="1" parent="1">
          <mxGeometry x="470" y="-230" width="80" height="80" as="geometry" />
        </mxCell>
        <mxCell id="h9_nZe1dcZp-BVQekUmI-52" style="edgeStyle=none;curved=1;rounded=0;orthogonalLoop=1;jettySize=auto;html=1;entryX=0.5;entryY=1;entryDx=0;entryDy=0;fontSize=12;startSize=8;endSize=8;" edge="1" parent="1" source="h9_nZe1dcZp-BVQekUmI-49" target="h9_nZe1dcZp-BVQekUmI-51">
          <mxGeometry relative="1" as="geometry" />
        </mxCell>
        <mxCell id="h9_nZe1dcZp-BVQekUmI-49" value="ReLU" style="rounded=1;whiteSpace=wrap;html=1;" vertex="1" parent="1">
          <mxGeometry x="465" y="-300" width="90" height="40" as="geometry" />
        </mxCell>
        <mxCell id="h9_nZe1dcZp-BVQekUmI-51" value="Output&lt;br&gt;&lt;div&gt;&amp;nbsp;Layer&lt;/div&gt;" style="shape=trapezoid;perimeter=trapezoidPerimeter;whiteSpace=wrap;html=1;fixedSize=1;" vertex="1" parent="1">
          <mxGeometry x="450" y="-410" width="120" height="75" as="geometry" />
        </mxCell>
      </root>
    </mxGraphModel>
  </diagram>
</mxfile>
